<svg width="2973" height="1005" viewBox="0 0 2973 1005" fill="none" xmlns="http://www.w3.org/2000/svg">
<mask id="path-1-outside-1_1003_441" maskUnits="userSpaceOnUse" x="148" y="56" width="492" height="658" fill="black">
<rect fill="white" x="148" y="56" width="492" height="658"/>
<path fill-rule="evenodd" clip-rule="evenodd" d="M633.884 453.374V113.42C633.884 85.0212 610.871 61.9996 582.272 62C553.983 62.1166 531.146 85.1518 531.262 113.451L532.772 480.02C529.037 547.579 473.729 599.697 403.993 604.575C328.608 609.849 263.229 553.049 257.963 477.713C252.697 402.378 309.537 337.029 384.923 331.755C413.19 329.778 434.507 305.269 432.532 277.011C430.557 248.752 406.038 227.45 377.77 229.428C245.85 238.656 146.376 353.022 155.592 484.875C164.809 616.727 279.226 716.131 411.146 706.902C540.858 697.829 639.201 587.107 633.696 458.061C633.82 456.418 633.884 454.851 633.884 453.374Z"/>
</mask>
<path d="M582.272 62L582.272 56L582.259 56L582.247 56.0001L582.272 62ZM531.262 113.451L537.262 113.426L537.262 113.426L531.262 113.451ZM532.772 480.02L538.763 480.351L538.773 480.174L538.772 479.996L532.772 480.02ZM403.993 604.575L404.412 610.561L404.412 610.561L403.993 604.575ZM257.963 477.713L263.949 477.295L263.949 477.295L257.963 477.713ZM384.923 331.755L385.342 337.74L385.342 337.74L384.923 331.755ZM432.532 277.011L438.517 276.592L438.517 276.592L432.532 277.011ZM377.77 229.428L377.351 223.442L377.351 223.442L377.77 229.428ZM155.592 484.875L161.577 484.456L155.592 484.875ZM411.146 706.902L410.727 700.917L410.727 700.917L411.146 706.902ZM633.696 458.061L627.713 457.609L627.686 457.963L627.701 458.317L633.696 458.061ZM627.884 113.42V453.374H639.884V113.42H627.884ZM582.272 68C607.571 67.9996 627.884 88.3487 627.884 113.42H639.884C639.884 81.6936 614.17 55.9995 582.272 56L582.272 68ZM537.262 113.426C537.159 88.4387 557.324 68.1029 582.296 67.9999L582.247 56.0001C550.643 56.1303 525.132 81.865 525.262 113.475L537.262 113.426ZM538.772 479.996L537.262 113.426L525.262 113.475L526.772 480.045L538.772 479.996ZM404.412 610.561C476.864 605.492 534.845 551.222 538.763 480.351L526.781 479.689C523.23 543.936 470.594 593.902 403.574 598.59L404.412 610.561ZM251.978 478.132C257.475 556.777 325.724 616.065 404.412 610.561L403.575 598.59C331.491 603.632 268.983 549.321 263.949 477.295L251.978 478.132ZM384.504 325.77C305.816 331.274 246.481 399.487 251.978 478.132L263.949 477.295C258.914 405.268 313.258 342.783 385.342 337.74L384.504 325.77ZM426.547 277.429C428.291 302.38 409.469 324.023 384.504 325.77L385.342 337.74C416.912 335.532 440.724 308.159 438.517 276.592L426.547 277.429ZM378.189 235.413C403.153 233.667 424.803 252.479 426.547 277.429L438.517 276.592C436.311 245.026 408.922 221.234 377.351 223.442L378.189 235.413ZM161.577 484.456C152.592 355.912 249.571 244.41 378.189 235.413L377.351 223.442C242.129 232.902 140.159 350.132 149.607 485.293L161.577 484.456ZM410.727 700.917C282.109 709.914 170.563 613 161.577 484.456L149.607 485.293C159.055 620.454 276.342 722.347 411.565 712.888L410.727 700.917ZM627.701 458.317C633.069 584.122 537.191 692.071 410.727 700.917L411.565 712.888C544.525 703.587 645.334 590.093 639.69 457.806L627.701 458.317ZM627.884 453.374C627.884 454.682 627.827 456.097 627.713 457.609L639.679 458.514C639.813 456.74 639.884 455.021 639.884 453.374H627.884Z" fill="white" mask="url(#path-1-outside-1_1003_441)"/>
<mask id="path-3-outside-2_1003_441" maskUnits="userSpaceOnUse" x="878.148" y="221.578" width="491" height="784" fill="black">
<rect fill="white" x="878.148" y="221.578" width="491" height="784"/>
<path fill-rule="evenodd" clip-rule="evenodd" d="M1161.68 663.793C1159.71 692.362 1135.19 713.898 1106.92 711.899C974.998 702.569 875.524 586.947 884.741 453.645C893.957 320.344 1008.37 219.848 1140.29 229.178C1265.66 238.044 1361.73 342.907 1363.05 467.711C1363.1 468.498 1363.12 469.261 1363.12 469.998V753.678C1363.12 755.275 1363.01 756.851 1362.81 758.403C1362.09 891.407 1255.16 998.999 1123.36 998.999C1095.03 998.999 1072.05 975.786 1072.05 947.147C1072.05 918.508 1095.03 895.295 1123.36 895.295C1198.93 895.295 1260.19 833.399 1260.19 757.049C1260.19 754.544 1260.3 752.059 1260.52 749.6L1261.95 459.124C1258.49 390.546 1203.07 337.575 1133.14 332.63C1057.76 327.298 992.378 384.722 987.112 460.885C981.846 537.049 1038.69 603.116 1114.07 608.447C1142.34 610.446 1163.66 635.224 1161.68 663.793Z"/>
</mask>
<path d="M1106.92 711.899L1106.5 717.884L1106.5 717.884L1106.92 711.899ZM1161.68 663.793L1155.69 663.379L1155.69 663.379L1161.68 663.793ZM884.741 453.645L890.726 454.059L884.741 453.645ZM1140.29 229.178L1140.72 223.193L1140.29 229.178ZM1363.05 467.711L1357.05 467.774L1357.05 467.913L1357.06 468.051L1363.05 467.711ZM1362.81 758.403L1356.86 757.622L1356.81 757.995L1356.81 758.371L1362.81 758.403ZM1260.52 749.6L1266.49 750.12L1266.52 749.876L1266.52 749.63L1260.52 749.6ZM1261.95 459.124L1267.95 459.154L1267.95 458.988L1267.94 458.822L1261.95 459.124ZM1133.14 332.63L1133.56 326.644L1133.56 326.644L1133.14 332.63ZM987.112 460.885L981.126 460.471L981.126 460.471L987.112 460.885ZM1114.07 608.447L1113.65 614.432L1114.07 608.447ZM1106.5 717.884C1138.13 720.121 1165.47 696.026 1167.67 664.207L1155.69 663.379C1153.94 688.697 1132.24 707.675 1107.34 705.914L1106.5 717.884ZM878.755 453.232C869.314 589.777 971.215 708.316 1106.5 717.884L1107.34 705.914C978.781 696.822 881.734 584.116 890.726 454.059L878.755 453.232ZM1140.72 223.193C1005.43 213.625 888.196 316.679 878.755 453.232L890.726 454.059C899.718 324.009 1011.32 226.072 1139.87 235.163L1140.72 223.193ZM1369.05 467.647C1367.69 339.796 1269.28 232.285 1140.72 223.193L1139.87 235.163C1262.05 243.803 1355.76 346.018 1357.05 467.774L1369.05 467.647ZM1357.06 468.051C1357.1 468.734 1357.12 469.384 1357.12 469.998H1369.12C1369.12 469.139 1369.09 468.262 1369.04 467.37L1357.06 468.051ZM1357.12 469.998V753.678H1369.12V469.998H1357.12ZM1357.12 753.678C1357.12 755.013 1357.03 756.328 1356.86 757.622L1368.76 759.184C1369 757.375 1369.12 755.537 1369.12 753.678H1357.12ZM1356.81 758.371C1356.11 888.134 1251.8 992.999 1123.36 992.999V1005C1258.52 1005 1368.07 894.68 1368.81 758.436L1356.81 758.371ZM1123.36 992.999C1098.4 992.999 1078.05 972.531 1078.05 947.147H1066.05C1066.05 979.04 1091.66 1005 1123.36 1005V992.999ZM1078.05 947.147C1078.05 921.763 1098.4 901.295 1123.36 901.295V889.295C1091.66 889.295 1066.05 915.254 1066.05 947.147H1078.05ZM1123.36 901.295C1202.31 901.295 1266.19 836.654 1266.19 757.049H1254.19C1254.19 830.144 1195.56 889.295 1123.36 889.295V901.295ZM1266.19 757.049C1266.19 754.72 1266.3 752.409 1266.49 750.12L1254.54 749.08C1254.31 751.709 1254.19 754.367 1254.19 757.049H1266.19ZM1266.52 749.63L1267.95 459.154L1255.95 459.095L1254.52 749.571L1266.52 749.63ZM1132.72 338.615C1199.87 343.364 1252.67 394.123 1255.96 459.426L1267.94 458.822C1264.32 386.97 1206.27 331.786 1133.56 326.644L1132.72 338.615ZM993.097 461.299C998.139 388.387 1060.7 333.521 1132.72 338.615L1133.56 326.644C1054.81 321.075 986.617 381.056 981.126 460.471L993.097 461.299ZM1114.49 602.462C1042.47 597.368 988.056 534.218 993.097 461.299L981.126 460.471C975.636 539.879 1034.9 608.863 1113.65 614.432L1114.49 602.462ZM1167.67 664.207C1169.87 632.394 1146.12 604.699 1114.49 602.462L1113.65 614.432C1138.56 616.194 1157.45 638.054 1155.69 663.379L1167.67 664.207Z" fill="#E8BA00" mask="url(#path-3-outside-2_1003_441)"/>
<mask id="path-5-outside-3_1003_441" maskUnits="userSpaceOnUse" x="1606.68" y="56" width="304" height="658" fill="black">
<rect fill="white" x="1606.68" y="56" width="304" height="658"/>
<path fill-rule="evenodd" clip-rule="evenodd" d="M1716.02 223.687V113.849C1716.02 85.2135 1692.97 61.9996 1664.34 62C1636.02 62.1176 1613.15 85.3453 1613.27 113.881L1613.56 175.346C1613.38 177.031 1613.29 178.627 1613.29 180.113V259.856C1612.45 265.852 1612.5 272.156 1613.29 278.394V456.739C1613.15 459.938 1613.07 463.262 1613.07 466.714C1612.83 599.929 1720.03 707.727 1852.49 707.49C1880.88 707.439 1903.93 684.256 1903.98 655.706C1904.03 627.155 1881.06 604.054 1852.68 604.105C1777.05 604.24 1715.84 542.754 1715.86 466.733C1715.98 465.512 1716.04 464.277 1716.03 463.029L1715.93 442.837C1715.99 441.751 1716.02 440.718 1716.02 439.744V326.166H1790.34C1818.96 326.166 1842.17 303.117 1842.17 274.473C1842.05 246.14 1818.83 223.267 1790.31 223.383L1716.02 223.687Z"/>
</mask>
<path d="M1716.02 223.687H1710.02V229.712L1716.04 229.687L1716.02 223.687ZM1664.34 62L1664.34 56L1664.33 56L1664.32 56.0001L1664.34 62ZM1613.27 113.881L1607.27 113.905L1607.27 113.909L1613.27 113.881ZM1613.56 175.346L1619.53 175.987L1619.57 175.653L1619.56 175.317L1613.56 175.346ZM1613.29 259.856L1619.23 260.683L1619.29 260.272V259.856H1613.29ZM1613.29 278.394H1619.29V278.015L1619.24 277.639L1613.29 278.394ZM1613.29 456.739L1619.28 457.002L1619.29 456.871V456.739H1613.29ZM1613.07 466.714L1607.07 466.703L1613.07 466.714ZM1852.49 707.49L1852.5 713.49L1852.5 713.49L1852.49 707.49ZM1903.98 655.706L1897.98 655.695L1897.98 655.695L1903.98 655.706ZM1852.68 604.105L1852.69 610.105L1852.69 610.105L1852.68 604.105ZM1715.86 466.733L1709.89 466.145L1709.86 466.438L1709.86 466.731L1715.86 466.733ZM1716.03 463.029L1722.03 463L1722.03 463L1716.03 463.029ZM1715.93 442.837L1709.94 442.542L1709.93 442.704L1709.93 442.867L1715.93 442.837ZM1716.02 326.166V320.166H1710.02V326.166H1716.02ZM1842.17 274.473L1848.17 274.473L1848.17 274.46L1848.17 274.448L1842.17 274.473ZM1790.31 223.383L1790.33 229.383L1790.33 229.383L1790.31 223.383ZM1710.02 113.849V223.687H1722.02V113.849H1710.02ZM1664.34 68C1689.63 67.9996 1710.02 88.5008 1710.02 113.849H1722.02C1722.02 81.9262 1696.31 55.9995 1664.34 56L1664.34 68ZM1619.27 113.856C1619.17 88.5919 1639.4 68.1036 1664.37 67.9999L1664.32 56.0001C1632.64 56.1315 1607.14 82.0987 1607.27 113.905L1619.27 113.856ZM1619.56 175.317L1619.27 113.852L1607.27 113.909L1607.56 175.374L1619.56 175.317ZM1607.6 174.704C1607.4 176.569 1607.29 178.381 1607.29 180.113H1619.29C1619.29 178.872 1619.37 177.493 1619.53 175.987L1607.6 174.704ZM1607.29 180.113V259.856H1619.29V180.113H1607.29ZM1607.35 259.028C1606.43 265.611 1606.49 272.451 1607.34 279.148L1619.24 277.639C1618.51 271.862 1618.48 266.094 1619.23 260.683L1607.35 259.028ZM1607.29 278.394V456.739H1619.29V278.394H1607.29ZM1607.3 456.477C1607.15 459.764 1607.07 463.172 1607.07 466.703L1619.07 466.724C1619.07 463.353 1619.15 460.113 1619.28 457.002L1607.3 456.477ZM1607.07 466.703C1606.83 603.209 1716.68 713.733 1852.5 713.49L1852.48 701.49C1723.37 701.721 1618.84 596.65 1619.07 466.724L1607.07 466.703ZM1852.5 713.49C1884.23 713.433 1909.93 687.54 1909.98 655.716L1897.98 655.695C1897.94 680.972 1877.53 701.445 1852.48 701.49L1852.5 713.49ZM1909.98 655.716C1910.04 623.876 1884.41 598.048 1852.67 598.105L1852.69 610.105C1877.72 610.06 1898.03 630.434 1897.98 655.695L1909.98 655.716ZM1852.67 598.105C1780.39 598.234 1721.84 539.469 1721.86 466.735L1709.86 466.731C1709.84 546.039 1773.71 610.246 1852.69 610.105L1852.67 598.105ZM1721.83 467.321C1721.97 465.896 1722.04 464.454 1722.03 463L1710.03 463.059C1710.04 464.1 1709.99 465.129 1709.89 466.145L1721.83 467.321ZM1722.03 463L1721.93 442.807L1709.93 442.867L1710.03 463.059L1722.03 463ZM1710.02 439.744C1710.02 440.608 1709.99 441.541 1709.94 442.542L1721.93 443.133C1721.99 441.96 1722.02 440.828 1722.02 439.744H1710.02ZM1710.02 326.166V439.744H1722.02V326.166H1710.02ZM1716.02 332.166H1790.34V320.166H1716.02V332.166ZM1790.34 332.166C1822.25 332.166 1848.17 306.452 1848.17 274.473L1836.17 274.473C1836.17 299.781 1815.67 320.166 1790.34 320.166V332.166ZM1848.17 274.448C1848.04 242.763 1822.08 217.253 1790.28 217.383L1790.33 229.383C1815.58 229.28 1836.06 249.517 1836.17 274.498L1848.17 274.448ZM1790.28 217.383L1715.99 217.687L1716.04 229.687L1790.33 229.383L1790.28 217.383Z" fill="#00E8A2" mask="url(#path-5-outside-3_1003_441)"/>
<mask id="path-7-outside-4_1003_441" maskUnits="userSpaceOnUse" x="2481.21" y="222.066" width="492" height="658" fill="black">
<rect fill="white" x="2481.21" y="222.066" width="492" height="658"/>
<path fill-rule="evenodd" clip-rule="evenodd" d="M2487.33 482.692V822.647C2487.33 851.045 2510.34 874.067 2538.94 874.066C2567.23 873.95 2590.07 850.915 2589.95 822.616L2588.44 456.046C2592.17 388.488 2647.48 336.369 2717.22 331.491C2792.6 326.218 2857.98 383.017 2863.25 458.353C2868.51 533.689 2811.67 599.038 2736.29 604.311C2708.02 606.289 2686.7 630.797 2688.68 659.056C2690.65 687.314 2715.17 708.616 2743.44 706.639C2875.36 697.41 2974.84 583.044 2965.62 451.192C2956.4 319.339 2841.99 219.936 2710.07 229.164C2580.35 238.238 2482.01 348.959 2487.52 478.005C2487.39 479.648 2487.33 481.215 2487.33 482.692Z"/>
</mask>
<path d="M2538.94 874.066L2538.94 880.066L2538.95 880.066L2538.96 880.066L2538.94 874.066ZM2589.95 822.616L2583.95 822.64L2583.95 822.64L2589.95 822.616ZM2588.44 456.046L2582.45 455.715L2582.44 455.893L2582.44 456.071L2588.44 456.046ZM2717.22 331.491L2716.8 325.506L2716.8 325.506L2717.22 331.491ZM2863.25 458.353L2857.26 458.771L2857.26 458.771L2863.25 458.353ZM2736.29 604.311L2735.87 598.326L2735.87 598.326L2736.29 604.311ZM2688.68 659.056L2682.69 659.474L2682.69 659.474L2688.68 659.056ZM2743.44 706.639L2743.86 712.624L2743.86 712.624L2743.44 706.639ZM2965.62 451.192L2959.63 451.61L2965.62 451.192ZM2710.07 229.164L2710.48 235.149L2710.48 235.149L2710.07 229.164ZM2487.52 478.005L2493.5 478.458L2493.52 478.104L2493.51 477.749L2487.52 478.005ZM2493.33 822.647V482.692H2481.33V822.647H2493.33ZM2538.94 868.066C2513.64 868.067 2493.33 847.718 2493.33 822.647H2481.33C2481.33 854.373 2507.04 880.067 2538.94 880.066L2538.94 868.066ZM2583.95 822.64C2584.05 847.628 2563.89 867.964 2538.91 868.066L2538.96 880.066C2570.57 879.936 2596.08 854.201 2595.95 822.591L2583.95 822.64ZM2582.44 456.071L2583.95 822.64L2595.95 822.591L2594.44 456.021L2582.44 456.071ZM2716.8 325.506C2644.35 330.574 2586.37 384.845 2582.45 455.715L2594.43 456.377C2597.98 392.13 2650.62 342.165 2717.64 337.477L2716.8 325.506ZM2869.23 457.935C2863.74 379.29 2795.49 320.001 2716.8 325.506L2717.64 337.477C2789.72 332.434 2852.23 386.745 2857.26 458.771L2869.23 457.935ZM2736.71 610.297C2815.39 604.792 2874.73 536.579 2869.23 457.935L2857.26 458.771C2862.3 530.798 2807.95 593.284 2735.87 598.326L2736.71 610.297ZM2694.66 658.637C2692.92 633.687 2711.74 612.043 2736.71 610.297L2735.87 598.326C2704.3 600.534 2680.49 627.907 2682.69 659.474L2694.66 658.637ZM2743.02 700.653C2718.06 702.4 2696.41 683.587 2694.66 658.637L2682.69 659.474C2684.9 691.041 2712.29 714.832 2743.86 712.624L2743.02 700.653ZM2959.63 451.61C2968.62 580.154 2871.64 691.656 2743.02 700.653L2743.86 712.624C2879.08 703.165 2981.05 585.935 2971.6 450.774L2959.63 451.61ZM2710.48 235.149C2839.1 226.152 2950.65 323.067 2959.63 451.61L2971.6 450.774C2962.16 315.612 2844.87 213.719 2709.65 223.179L2710.48 235.149ZM2493.51 477.749C2488.14 351.945 2584.02 243.996 2710.48 235.149L2709.65 223.179C2576.69 232.48 2475.88 345.973 2481.52 478.261L2493.51 477.749ZM2493.33 482.692C2493.33 481.385 2493.38 479.97 2493.5 478.458L2481.53 477.552C2481.4 479.326 2481.33 481.046 2481.33 482.692H2493.33Z" fill="white" mask="url(#path-7-outside-4_1003_441)"/>
<mask id="path-9-outside-5_1003_441" maskUnits="userSpaceOnUse" x="1917.87" y="222.574" width="493" height="491" fill="black">
<rect fill="white" x="1917.87" y="222.574" width="493" height="491"/>
<path fill-rule="evenodd" clip-rule="evenodd" d="M2403.7 454.337V280.197C2403.7 251.686 2380.68 228.574 2352.09 228.574C2323.8 228.691 2300.97 251.817 2301.08 280.228L2302.58 481.887C2297.6 548.406 2242.84 599.399 2174.02 604.2C2172.51 604.305 2170.25 604.378 2167.69 604.461L2167.68 604.461C2165.27 604.539 2162.59 604.625 2160.04 604.755C2158.29 604.521 2156.52 604.34 2154.75 604.216C2086.99 599.49 2032.87 549.996 2026.45 484.993L2027.97 280.228C2028.09 251.817 2005.25 228.691 1976.97 228.574C1948.37 228.574 1925.36 251.686 1925.36 280.197V452.254C1917.01 583.921 2016.16 697.77 2147.55 706.934C2154.05 707.388 2160.11 707.56 2165.75 707.476C2170.62 707.479 2175.77 707.298 2181.22 706.918C2311.12 697.857 2409.52 586.458 2403.65 456.684C2403.68 455.88 2403.7 455.097 2403.7 454.337Z"/>
</mask>
<path d="M2352.09 228.574L2352.09 222.574L2352.08 222.574L2352.06 222.574L2352.09 228.574ZM2301.08 280.228L2295.08 280.253L2295.08 280.262L2295.08 280.272L2301.08 280.228ZM2302.58 481.887L2308.56 482.335L2308.58 482.089L2308.58 481.843L2302.58 481.887ZM2174.02 604.2L2174.44 610.186L2174.44 610.186L2174.02 604.2ZM2167.69 604.461L2167.49 598.464L2167.48 598.465L2167.46 598.465L2167.69 604.461ZM2167.68 604.461L2167.87 610.458L2167.89 610.457L2167.91 610.457L2167.68 604.461ZM2160.04 604.755L2159.24 610.702L2159.79 610.775L2160.34 610.747L2160.04 604.755ZM2154.75 604.216L2155.16 598.231L2155.16 598.231L2154.75 604.216ZM2026.45 484.993L2020.46 484.949L2020.45 485.267L2020.48 485.583L2026.45 484.993ZM2027.97 280.228L2033.97 280.272L2033.97 280.262L2033.97 280.253L2027.97 280.228ZM1976.97 228.574L1976.99 222.574L1976.98 222.574L1976.97 222.574L1976.97 228.574ZM1925.36 452.254L1931.35 452.634L1931.36 452.444V452.254H1925.36ZM2147.55 706.934L2147.96 700.949L2147.96 700.949L2147.55 706.934ZM2165.75 707.476L2165.76 701.476L2165.71 701.476L2165.67 701.477L2165.75 707.476ZM2181.22 706.918L2180.8 700.933L2180.8 700.933L2181.22 706.918ZM2403.65 456.684L2397.65 456.437L2397.64 456.696L2397.65 456.955L2403.65 456.684ZM2397.7 280.197V454.337H2409.7V280.197H2397.7ZM2352.09 234.574C2377.36 234.574 2397.7 254.991 2397.7 280.197H2409.7C2409.7 248.381 2384.01 222.574 2352.09 222.574L2352.09 234.574ZM2307.08 280.203C2306.98 255.082 2327.16 234.677 2352.11 234.574L2352.06 222.574C2320.44 222.705 2294.95 248.553 2295.08 280.253L2307.08 280.203ZM2308.58 481.843L2307.08 280.183L2295.08 280.272L2296.58 481.932L2308.58 481.843ZM2174.44 610.186C2245.96 605.197 2303.34 552.091 2308.56 482.335L2296.59 481.439C2291.85 544.721 2239.73 593.602 2173.6 598.215L2174.44 610.186ZM2167.88 610.458C2170.39 610.377 2172.79 610.3 2174.44 610.186L2173.6 598.215C2172.24 598.31 2170.11 598.38 2167.49 598.464L2167.88 610.458ZM2167.91 610.457L2167.92 610.456L2167.46 598.465L2167.45 598.466L2167.91 610.457ZM2160.34 610.747C2162.83 610.621 2165.45 610.536 2167.87 610.458L2167.49 598.464C2165.08 598.542 2162.35 598.63 2159.73 598.763L2160.34 610.747ZM2154.33 610.201C2155.98 610.317 2157.62 610.484 2159.24 610.702L2160.83 598.808C2158.96 598.557 2157.07 598.364 2155.16 598.231L2154.33 610.201ZM2020.48 485.583C2027.21 553.75 2083.91 605.29 2154.33 610.201L2155.16 598.231C2090.07 593.69 2038.53 546.242 2032.43 484.404L2020.48 485.583ZM2032.45 485.038L2033.97 280.272L2021.97 280.183L2020.46 484.949L2032.45 485.038ZM2033.97 280.253C2034.1 248.553 2008.62 222.705 1976.99 222.574L1976.94 234.574C2001.89 234.677 2022.08 255.082 2021.97 280.203L2033.97 280.253ZM1976.97 222.574C1945.05 222.574 1919.36 248.381 1919.36 280.197H1931.36C1931.36 254.991 1951.69 234.574 1976.97 234.574L1976.97 222.574ZM1919.36 280.197V452.254H1931.36V280.197H1919.36ZM2147.96 700.949C2019.89 692.015 1923.2 581.028 1931.35 452.634L1919.37 451.874C1910.81 586.813 2012.43 703.524 2147.13 712.92L2147.96 700.949ZM2165.67 701.477C2160.21 701.558 2154.31 701.392 2147.96 700.949L2147.13 712.92C2153.78 713.384 2160.02 713.562 2165.84 713.476L2165.67 701.477ZM2180.8 700.933C2175.49 701.303 2170.48 701.479 2165.76 701.476L2165.75 713.476C2170.77 713.479 2176.06 713.293 2181.64 712.904L2180.8 700.933ZM2397.65 456.955C2403.38 583.502 2307.43 692.1 2180.8 700.933L2181.64 712.904C2314.81 703.614 2415.66 589.414 2409.64 456.413L2397.65 456.955ZM2397.7 454.337C2397.7 455.01 2397.68 455.711 2397.65 456.437L2409.64 456.93C2409.68 456.05 2409.7 455.185 2409.7 454.337H2397.7Z" fill="#00BAE8" mask="url(#path-9-outside-5_1003_441)"/>
<mask id="path-11-outside-6_1003_441" maskUnits="userSpaceOnUse" x="1440.02" y="56" width="115" height="677" fill="black">
<rect fill="white" x="1440.02" y="56" width="115" height="677"/>
<path fill-rule="evenodd" clip-rule="evenodd" d="M1449.96 111.353C1449.96 138.61 1472.01 160.706 1499.21 160.706C1526.41 160.706 1548.46 138.61 1548.46 111.353C1548.46 84.0961 1526.41 62 1499.21 62C1472.01 62 1449.96 84.0961 1449.96 111.353ZM1548.31 280.388V299.361V657.004V675.977C1548.31 703.805 1525.8 726.364 1498.03 726.364C1470.24 726.364 1447.68 703.852 1447.57 676.008L1446.02 299.391C1446.02 298.434 1446.04 297.483 1446.09 296.539L1446.02 280.419C1445.9 252.163 1468.67 229.163 1496.86 229.047C1525.37 229.046 1548.31 252.033 1548.31 280.388Z"/>
</mask>
<path d="M1447.57 676.008L1453.57 675.984L1447.57 676.008ZM1446.02 299.391L1452.02 299.367L1446.02 299.391ZM1446.09 296.539L1452.08 296.843L1452.09 296.679L1452.09 296.514L1446.09 296.539ZM1446.02 280.419L1452.02 280.394L1446.02 280.419ZM1496.86 229.047L1496.86 223.047L1496.85 223.047L1496.84 223.047L1496.86 229.047ZM1499.21 154.706C1475.33 154.706 1455.96 135.308 1455.96 111.353H1443.96C1443.96 141.912 1468.68 166.706 1499.21 166.706V154.706ZM1542.46 111.353C1542.46 135.308 1523.08 154.706 1499.21 154.706V166.706C1529.73 166.706 1554.46 141.912 1554.46 111.353H1542.46ZM1499.21 68C1523.08 68 1542.46 87.398 1542.46 111.353H1554.46C1554.46 80.7943 1529.73 56 1499.21 56V68ZM1455.96 111.353C1455.96 87.398 1475.33 68 1499.21 68V56C1468.68 56 1443.96 80.7943 1443.96 111.353H1455.96ZM1554.31 299.361V280.388H1542.31V299.361H1554.31ZM1554.31 657.004V299.361H1542.31V657.004H1554.31ZM1554.31 675.977V657.004H1542.31V675.977H1554.31ZM1498.03 732.364C1529.12 732.364 1554.31 707.107 1554.31 675.977H1542.31C1542.31 700.503 1522.47 720.364 1498.03 720.364V732.364ZM1441.57 676.033C1441.7 707.169 1466.92 732.364 1498.03 732.364V720.364C1473.56 720.364 1453.67 700.536 1453.57 675.984L1441.57 676.033ZM1440.02 299.416L1441.57 676.033L1453.57 675.984L1452.02 299.367L1440.02 299.416ZM1440.09 296.235C1440.04 297.289 1440.02 298.349 1440.02 299.416L1452.02 299.367C1452.02 298.519 1452.04 297.678 1452.08 296.843L1440.09 296.235ZM1440.02 280.444L1440.09 296.564L1452.09 296.514L1452.02 280.394L1440.02 280.444ZM1496.84 223.047C1465.32 223.177 1439.89 248.886 1440.02 280.444L1452.02 280.394C1451.92 255.44 1472.02 235.15 1496.89 235.047L1496.84 223.047ZM1554.31 280.388C1554.31 248.715 1528.68 223.046 1496.86 223.047L1496.86 235.047C1522.06 235.046 1542.31 255.351 1542.31 280.388H1554.31Z" fill="#0046E8" mask="url(#path-11-outside-6_1003_441)"/>
<mask id="path-13-outside-7_1003_441" maskUnits="userSpaceOnUse" x="711.082" y="56" width="115" height="677" fill="black">
<rect fill="white" x="711.082" y="56" width="115" height="677"/>
<path fill-rule="evenodd" clip-rule="evenodd" d="M721.019 111.353C721.019 138.61 743.069 160.706 770.269 160.706C797.469 160.706 819.519 138.61 819.519 111.353C819.519 84.0961 797.469 62 770.269 62C743.069 62 721.019 84.0961 721.019 111.353ZM819.371 284.173V299.361V660.789V675.977C819.371 703.805 796.859 726.364 769.089 726.364C741.303 726.364 718.745 703.852 718.631 676.008L717.082 299.391C717.079 298.536 717.096 297.684 717.134 296.839L717.082 284.204C716.966 255.949 739.73 232.949 767.926 232.832C796.432 232.832 819.371 255.818 819.371 284.173Z"/>
</mask>
<path d="M718.631 676.008L724.631 675.984L718.631 676.008ZM717.082 299.391L723.082 299.367L723.082 299.367L717.082 299.391ZM717.134 296.839L723.128 297.108L723.135 296.961L723.134 296.814L717.134 296.839ZM717.082 284.204L711.083 284.229L717.082 284.204ZM767.926 232.832L767.926 226.832L767.914 226.832L767.902 226.832L767.926 232.832ZM770.269 154.706C746.395 154.706 727.019 135.308 727.019 111.353H715.019C715.019 141.912 739.744 166.706 770.269 166.706V154.706ZM813.519 111.353C813.519 135.308 794.144 154.706 770.269 154.706V166.706C800.795 166.706 825.519 141.912 825.519 111.353H813.519ZM770.269 68C794.144 68 813.519 87.398 813.519 111.353H825.519C825.519 80.7943 800.795 56 770.269 56V68ZM727.019 111.353C727.019 87.398 746.395 68 770.269 68V56C739.744 56 715.019 80.7943 715.019 111.353H727.019ZM825.371 299.361V284.173H813.371V299.361H825.371ZM825.371 660.789V299.361H813.371V660.789H825.371ZM825.371 675.977V660.789H813.371V675.977H825.371ZM769.089 732.364C800.184 732.364 825.371 707.107 825.371 675.977H813.371C813.371 700.503 793.533 720.364 769.089 720.364V732.364ZM712.631 676.033C712.759 707.169 737.987 732.364 769.089 732.364V720.364C744.618 720.364 724.732 700.536 724.631 675.984L712.631 676.033ZM711.083 299.416L712.631 676.033L724.631 675.984L723.082 299.367L711.083 299.416ZM711.14 296.569C711.098 297.513 711.079 298.462 711.083 299.416L723.082 299.367C723.079 298.609 723.095 297.856 723.128 297.108L711.14 296.569ZM711.083 284.229L711.134 296.863L723.134 296.814L723.082 284.179L711.083 284.229ZM767.902 226.832C736.38 226.962 710.953 252.671 711.083 284.229L723.082 284.179C722.98 259.226 743.08 238.935 767.951 238.832L767.902 226.832ZM825.371 284.173C825.371 252.5 799.742 226.832 767.926 226.832L767.926 238.832C793.123 238.832 813.371 259.136 813.371 284.173H825.371Z" fill="white" mask="url(#path-13-outside-7_1003_441)"/>
</svg>
