<svg width="51" height="51" viewBox="0 0 51 51" fill="none" xmlns="http://www.w3.org/2000/svg">
<rect width="51" height="51" rx="25.5" fill="#0046E8"/>
<path fill-rule="evenodd" clip-rule="evenodd" d="M24.5053 25.1383V16.7383C24.5053 16.0366 23.9367 15.4678 23.23 15.4678C22.531 15.4707 21.9667 16.0398 21.9696 16.7391L22.0073 25.8861C21.8722 27.5119 20.5237 28.7561 18.8315 28.8745C16.9688 29.0048 15.3533 27.6013 15.2232 25.7399C15.0931 23.8784 16.4975 22.2637 18.3603 22.1334C19.0587 22.0845 19.5854 21.4789 19.5366 20.7807C19.4878 20.0824 18.882 19.5561 18.1835 19.6049C14.9239 19.833 12.466 22.6588 12.6937 25.9168C12.9214 29.1748 15.7486 31.631 19.0082 31.4029C22.2341 31.1773 24.6747 28.4073 24.5042 25.1922C24.5049 25.1737 24.5053 25.1558 24.5053 25.1383Z" fill="white"/>
<path fill-rule="evenodd" clip-rule="evenodd" d="M26.4947 25.8622V34.2622C26.4947 34.9639 27.0633 35.5327 27.77 35.5327C28.469 35.5298 29.0333 34.9607 29.0304 34.2614L28.9927 25.1144C29.1278 23.4886 30.4763 22.2444 32.1685 22.126C34.0312 21.9957 35.6467 23.3991 35.7768 25.2606C35.9069 27.1221 34.5025 28.7368 32.6397 28.8671C31.9413 28.916 31.4146 29.5216 31.4634 30.2198C31.5122 30.9181 32.118 31.4444 32.8165 31.3956C36.0761 31.1675 38.534 28.3416 38.3063 25.0837C38.0786 21.8257 35.2514 19.3695 31.9918 19.5976C28.7659 19.8232 26.3253 22.5932 26.4958 25.8083C26.4951 25.8268 26.4947 25.8447 26.4947 25.8622Z" fill="white"/>
</svg>
